<svg width="32" height="32" viewBox="0 0 32 32" fill="none" xmlns="http://www.w3.org/2000/svg">
  <circle cx="16" cy="16" r="6" fill="url(#grad1)"/>
  <path d="M16 4C13.5 4 11.5 6 11.5 8.5C11.5 11 13.5 13 16 13C18.5 13 20.5 11 20.5 8.5C20.5 6 18.5 4 16 4Z" fill="url(#grad2)"/>
  <path d="M28 16C28 13.5 26 11.5 23.5 11.5C21 11.5 19 13.5 19 16C19 18.5 21 20.5 23.5 20.5C26 20.5 28 18.5 28 16Z" fill="url(#grad3)"/>
  <path d="M16 28C18.5 28 20.5 26 20.5 23.5C20.5 21 18.5 19 16 19C13.5 19 11.5 21 11.5 23.5C11.5 26 13.5 28 16 28Z" fill="url(#grad4)"/>
  <path d="M4 16C4 18.5 6 20.5 8.5 20.5C11 20.5 13 18.5 13 16C13 13.5 11 11.5 8.5 11.5C6 11.5 4 13.5 4 16Z" fill="url(#grad2)"/>
  <defs>
    <linearGradient id="grad1" x1="10" y1="10" x2="22" y2="22" gradientUnits="userSpaceOnUse">
      <stop stop-color="#6366F1"/>
      <stop offset="1" stop-color="#A855F7"/>
    </linearGradient>
    <linearGradient id="grad2" x1="4" y1="4" x2="28" y2="28" gradientUnits="userSpaceOnUse">
      <stop stop-color="#0EA5E9"/>
      <stop offset="1" stop-color="#6366F1"/>
    </linearGradient>
    <linearGradient id="grad3" x1="19" y1="11" x2="28" y2="21" gradientUnits="userSpaceOnUse">
      <stop stop-color="#8B5CF6"/>
      <stop offset="1" stop-color="#D946EF"/>
    </linearGradient>
    <linearGradient id="grad4" x1="11" y1="19" x2="20" y2="28" gradientUnits="userSpaceOnUse">
      <stop stop-color="#2DD4BF"/>
      <stop offset="1" stop-color="#0EA5E9"/>
    </linearGradient>
  </defs>
</svg>
